<svg height="42" width="41" xmlns="http://www.w3.org/2000/svg"><g fill="none" fill-rule="evenodd"><path d="m36.298 36.641c-5.057 5.057-13.256 5.057-18.313 0-5.056-5.056-5.056-13.255 0-18.312 5.057-5.057 13.256-5.057 18.313 0s5.057 13.256 0 18.312" fill="#8ba5a8"/><path d="m22.805 23.34c-5.057 5.057-13.256 5.057-18.313 0-5.056-5.057-5.056-13.256 0-18.312 5.057-5.057 13.256-5.057 18.313 0 5.057 5.056 5.057 13.255 0 18.312" fill="#f1d37c"/><path d="m22.805 23.34c-5.057 5.057-13.256 5.057-18.313 0-5.056-5.057-5.056-13.256 0-18.312 5.057-5.057 13.256-5.057 18.313 0 5.057 5.056 5.057 13.255 0 18.312z" stroke="#8ba5a8" stroke-width="1.4"/><path d="m31.561 31.904a6.249 6.249 0 0 1 -8.838 0 6.249 6.249 0 1 1 8.838-8.838 6.25 6.25 0 0 1 0 8.838m-13.384-13.384a6.247 6.247 0 0 1 -8.837 0 6.249 6.249 0 1 1 8.837 0" fill="#fffffe"/><path d="m17.677 36.95a13.43 13.43 0 0 1 -3.909-9.926l.872.031a12.556 12.556 0 0 0 3.654 9.278c4.879 4.879 12.817 4.879 17.695 0 4.879-4.879 4.879-12.817 0-17.695a12.561 12.561 0 0 0 -8.877-3.663 13.327 13.327 0 0 1 -2.171 6.485 6.424 6.424 0 0 1 6.737 1.489 6.422 6.422 0 0 1 -.001 9.072 6.42 6.42 0 0 1 -9.071-.001 6.421 6.421 0 0 1 0-9.071 12.462 12.462 0 0 0 3.654-8.417l.015-.407.406-.014a13.433 13.433 0 0 1 9.925 3.909c5.219 5.219 5.219 13.711 0 18.93s-13.71 5.219-18.929 0zm5.546-13.384a5.548 5.548 0 0 0 0 7.838 5.548 5.548 0 0 0 7.838 0 5.548 5.548 0 0 0 0-7.838 5.548 5.548 0 0 0 -7.838 0z" fill="#1a1919" fill-rule="nonzero"/><path d="m17.677 36.95a13.43 13.43 0 0 1 -3.909-9.926l.872.031a12.556 12.556 0 0 0 3.654 9.278c4.879 4.879 12.817 4.879 17.695 0 4.879-4.879 4.879-12.817 0-17.695a12.561 12.561 0 0 0 -8.877-3.663 13.327 13.327 0 0 1 -2.171 6.485 6.424 6.424 0 0 1 6.737 1.489 6.422 6.422 0 0 1 -.001 9.072 6.42 6.42 0 0 1 -9.071-.001 6.421 6.421 0 0 1 0-9.071 12.462 12.462 0 0 0 3.654-8.417l.015-.407.406-.014a13.433 13.433 0 0 1 9.925 3.909c5.219 5.219 5.219 13.711 0 18.93s-13.71 5.219-18.929 0zm5.546-13.384a5.548 5.548 0 0 0 0 7.838 5.548 5.548 0 0 0 7.838 0 5.548 5.548 0 0 0 0-7.838 5.548 5.548 0 0 0 -7.838 0z" stroke="#1a1919" stroke-width=".728"/><path d="m4.294 23.566c-5.219-5.218-5.22-13.71 0-18.929 5.218-5.219 13.71-5.219 18.929 0a13.43 13.43 0 0 1 3.909 9.925l-.872-.03a12.55 12.55 0 0 0 -3.654-9.278c-4.879-4.879-12.817-4.879-17.696 0-4.878 4.878-4.878 12.817 0 17.695a12.56 12.56 0 0 0 8.878 3.662c.151-2.335.903-4.56 2.171-6.484a6.426 6.426 0 0 1 -6.737-1.489 6.424 6.424 0 0 1 0-9.073 6.422 6.422 0 0 1 9.072 0 6.424 6.424 0 0 1 0 9.073 12.462 12.462 0 0 0 -3.654 8.417l-.014.407-.408.013a13.427 13.427 0 0 1 -9.924-3.909zm13.383-13.384a5.548 5.548 0 0 0 -7.838 0 5.548 5.548 0 0 0 0 7.838 5.547 5.547 0 0 0 7.838 0 5.548 5.548 0 0 0 0-7.838z" fill="#1a1919" fill-rule="nonzero"/><path d="m4.294 23.566c-5.219-5.218-5.22-13.71 0-18.929 5.218-5.219 13.71-5.219 18.929 0a13.43 13.43 0 0 1 3.909 9.925l-.872-.03a12.55 12.55 0 0 0 -3.654-9.278c-4.879-4.879-12.817-4.879-17.696 0-4.878 4.878-4.878 12.817 0 17.695a12.56 12.56 0 0 0 8.878 3.662c.151-2.335.903-4.56 2.171-6.484a6.426 6.426 0 0 1 -6.737-1.489 6.424 6.424 0 0 1 0-9.073 6.422 6.422 0 0 1 9.072 0 6.424 6.424 0 0 1 0 9.073 12.462 12.462 0 0 0 -3.654 8.417l-.014.407-.408.013a13.427 13.427 0 0 1 -9.924-3.909zm13.383-13.384a5.548 5.548 0 0 0 -7.838 0 5.548 5.548 0 0 0 0 7.838 5.547 5.547 0 0 0 7.838 0 5.548 5.548 0 0 0 0-7.838z" stroke="#1a1919" stroke-width=".728"/><path d="m33.165 34.128.619-.619.617.617-.619.619zm-14.048-12.321.251-.353.714.504-.506.711-.712-.506zm12.239 13.596.748-.449.448.749-.748.448zm-13.386-11.453.002-.002.156-.407.813.315-.313.815-.814-.314zm11.317 12.242.834-.251.249.837-.835.251zm-11.903-9.886.002-.003.051-.43.868.103-.105.866-.865-.105zm9.702 10.145.872-.036.035.869-.87.039zm-9.694-7.72-.053-.431.865-.109.112.864-.869.111zm7.498 7.433.853.179-.178.853-.854-.179zm-6.895-5.077-.161-.407.813-.32.32.811-.812.318zm4.837 4.261.781.381-.38.785-.784-.381zm-3.673-2.131-.255-.354.707-.51.51.707-.709.512zm1.877.833.666.563-.563.666-.666-.563z" fill="#1a1919" fill-rule="nonzero"/><path d="m33.165 34.128.619-.619.617.617-.619.619zm-14.048-12.321.251-.353.714.504-.506.711-.712-.506zm12.239 13.596.748-.449.448.749-.748.448zm-13.386-11.453.002-.002.156-.407.813.315-.313.815-.814-.314zm11.317 12.242.834-.251.249.837-.835.251zm-11.903-9.886.002-.003.051-.43.868.103-.105.866-.865-.105zm9.702 10.145.872-.036.035.869-.87.039zm-9.694-7.72-.053-.431.865-.109.112.864-.869.111zm7.498 7.433.853.179-.178.853-.854-.179zm-6.895-5.077-.161-.407.813-.32.32.811-.812.318zm4.837 4.261.781.381-.38.785-.784-.381zm-3.673-2.131-.255-.354.707-.51.51.707-.709.512zm1.877.833.666.563-.563.666-.666-.563z" stroke="#1a1919" stroke-width=".243"/><path d="m20.415 8.11-.294-.323.646-.588.588.646-.646.587zm-1.551-2.419.725.486-.484.726-.364-.245-.362-.243zm2.853 4.218-.212-.38.759-.426.426.763-.762.423zm-5.069-5.213.409.146.413.146-.294.82-.411-.144-.411-.148zm5.908 7.261-.002.002-.113-.421.841-.229.228.842-.841.228zm-8.302-7.68.868.082-.082.867-.436-.041.002.002-.436-.041zm8.602 9.868-.004-.436.874-.006.006.87-.874.006zm-11.027-9.69.862-.133.134.861-.864.132zm10.747 11.874.114-.421.843.226-.229.841-.841-.224zm-13.052-11.11.403-.169-.002-.002.403-.169.34.804-.805.339zm12.199 13.14.222-.378.753.444-.444.753-.751-.443zm-14.247-11.828.695-.527.528.693-.694.527zm12.581 13.88.617-.616.617.616-.617.617z" fill="#1a1919" fill-rule="nonzero"/><path d="m20.415 8.11-.294-.323.646-.588.588.646-.646.587zm-1.551-2.419.725.486-.484.726-.364-.245-.362-.243zm2.853 4.218-.212-.38.759-.426.426.763-.762.423zm-5.069-5.213.409.146.413.146-.294.82-.411-.144-.411-.148zm5.908 7.261-.002.002-.113-.421.841-.229.228.842-.841.228zm-8.302-7.68.868.082-.082.867-.436-.041.002.002-.436-.041zm8.602 9.868-.004-.436.874-.006.006.87-.874.006zm-11.027-9.69.862-.133.134.861-.864.132zm10.747 11.874.114-.421.843.226-.229.841-.841-.224zm-13.052-11.11.403-.169-.002-.002.403-.169.34.804-.805.339zm12.199 13.14.222-.378.753.444-.444.753-.751-.443zm-14.247-11.828.695-.527.528.693-.694.527zm12.581 13.88.617-.616.617.616-.617.617z" stroke="#1a1919" stroke-width=".243"/></g></svg>